# xmcd
#
# Track frame offsets: 
#        150
#        24146
#        40141
#        60369
#        77534
#        107139
#        136244
#        163629
#        191244
#        214410
#        231435
#        250940
#        273348
#        293830
#
# Disc length: 4186 seconds
#
# Revision: 0
# Processed by: cddbd v1.5.2PL0 Copyright (c) Steve Scherf et al.
# Submitted via: ExactAudioCopy v0.95b4
#
DISCID=c210580e
DTITLE=Various Artist - Don´s Black Vol 5
DYEAR=1900
DGENRE=
TTITLE0=Shaggy - Mr. Boombastic
TTITLE1=Destinys Child - No, No, No
TTITLE2=Pras Michel - Ghetto Superstar
TTITLE3=Superboys - Ich wünsch du wärst bei mir
TTITLE4=Puff Daddy vs Sting - I´ll be missing you
TTITLE5=Paris Red - Love hurts
TTITLE6=C-Block - Time is ticking away
TTITLE7=Outkast - Atliens (rmx)
TTITLE8=Ginuwine - When doves cry
TTITLE9=Fugees - Ready or not
TTITLE10=Fugees - Fu-Ge-La
TTITLE11=Fugees - Killing m softly
TTITLE12=Fugees - No woman, no cry
TTITLE13=TLC - Creep
EXTD=
EXTT0=
EXTT1=
EXTT2=
EXTT3=
EXTT4=
EXTT5=
EXTT6=
EXTT7=
EXTT8=
EXTT9=
EXTT10=
EXTT11=
EXTT12=
EXTT13=
PLAYORDER=
